<?xml version="1.0" encoding="UTF-8" standalone="no" ?>
<!DOCTYPE svg PUBLIC "-//W3C//DTD SVG 1.1//EN" "http://www.w3.org/Graphics/SVG/1.1/DTD/svg11.dtd">
<svg xmlns="http://www.w3.org/2000/svg" xmlns:xlink="http://www.w3.org/1999/xlink" version="1.1" width="200" height="200" viewBox="0 0 500 500" xml:space="preserve">
<desc>Created with Fabric.js 4.6.0</desc>
<defs>
</defs>
<g transform="matrix(0.97 0 0 0.99 142.06 243.04)" id="FeYAwvFLqthm0abNo0zBE"  >
<path style="stroke: rgb(0,0,0); stroke-width: 8; stroke-dasharray: none; stroke-linecap: butt; stroke-dashoffset: 0; stroke-linejoin: miter; stroke-miterlimit: 4; fill: rgb(255,255,255); fill-opacity: 0; fill-rule: nonzero; opacity: 1;" vector-effect="non-scaling-stroke"  transform=" translate(0, 0)" d="M 85.74711 -206.1394 L 107.35967000000001 -225.60651 C 107.36269000000001 -225.60923 107.3674 -225.60906 107.37021000000001 -225.60611999999998 C 107.37301000000001 -225.60317999999998 107.37286000000002 -225.59858999999997 107.36986000000002 -225.59583999999998 L -84.24551 -49.85547999999997 L -84.24551 -49.85547999999997 C -98.62082 -36.67113999999997 -106.95083 -18.394489999999973 -107.35667 0.8521100000000317 C -107.76250999999999 20.098710000000032 -100.21 38.69424000000003 -86.40263999999999 52.44441000000003 L 87.47373000000002 225.60059000000004 L 87.47373000000002 225.60059000000004 C 87.48408000000002 225.61089000000004 87.50102000000001 225.61107000000004 87.51159000000001 225.60098000000005 C 87.52216000000001 225.59089000000006 87.52235000000002 225.57435000000004 87.51201000000002 225.56404000000006 L 56.46451000000002 194.56282000000007" stroke-linecap="round" />
</g>
<g transform="matrix(0.94 0 0 1 367.66 244.18)" id="jxmbyJl0MyHhl2pq97BzY"  >
<path style="stroke: rgb(0,0,0); stroke-width: 8; stroke-dasharray: none; stroke-linecap: butt; stroke-dashoffset: 0; stroke-linejoin: miter; stroke-miterlimit: 4; fill: rgb(255,255,255); fill-opacity: 0; fill-rule: nonzero; opacity: 1;" vector-effect="non-scaling-stroke"  transform=" translate(0, 0)" d="M -73.70989 -206.96132 L -90.74617 -224.46474 C -90.74981000000001 -224.46848 -90.74955000000001 -224.47429 -90.74558 -224.47773 C -90.74161000000001 -224.48116000000002 -90.73543000000001 -224.48092 -90.73178 -224.47719 L 89.92111999999999 -40.129940000000005 L 89.92111999999999 -40.129940000000005 C 113.76185999999998 -15.801660000000005 114.35085999999998 21.506179999999993 91.28864999999999 46.49024999999999 L -65.78141000000002 216.64947999999998 L -65.78141000000002 216.64947999999998 C -72.39580000000002 223.81506 -83.04277000000002 226.36246999999997 -92.49066000000002 223.03995999999998 C -101.93855000000002 219.71744999999999 -108.20114000000002 211.22351999999998 -108.20114000000002 201.73188 L -108.20114000000002 44.72638999999998 L -108.20114000000002 44.72638999999998 C -108.20114000000002 21.462939999999982 -88.16145000000003 2.6041899999999814 -63.441250000000025 2.6041899999999814 L -8.201140000000024 2.6041899999999814" stroke-linecap="round" />
</g>
</svg>